<svg xmlns="http://www.w3.org/2000/svg" viewBox="0 0 512 512" fill="none">
  <!-- Fondo circular -->
  <circle cx="256" cy="256" r="240" fill="#1e40af"/>
  
  <!-- Avión hidroavión simplificado -->
  <g transform="translate(256, 220) scale(0.8)">
    <!-- Fuselaje principal -->
    <path d="M -180 0 C -180 -20, -140 -30, -100 -30 L 100 -30 C 140 -30, 180 -20, 180 0 C 180 20, 140 30, 100 30 L -100 30 C -140 30, -180 20, -180 0 Z" fill="white"/>
    
    <!-- Ala superior -->
    <rect x="-200" y="-10" width="400" height="20" rx="10" fill="white"/>
    
    <!-- Flotadores -->
    <ellipse cx="-80" cy="70" rx="60" ry="25" fill="white"/>
    <ellipse cx="80" cy="70" rx="60" ry="25" fill="white"/>
    
    <!-- Conectores de flotadores -->
    <rect x="-90" y="30" width="20" height="40" fill="white"/>
    <rect x="70" y="30" width="20" height="40" fill="white"/>
    
    <!-- Cola vertical -->
    <path d="M -100 -30 L -100 -70 L -60 -70 L -60 -30 Z" fill="white"/>
    
    <!-- Hélice -->
    <circle cx="180" cy="0" r="15" fill="white"/>
    <rect x="175" y="-40" width="10" height="80" rx="5" fill="white"/>
    <rect x="160" y="-5" width="40" height="10" rx="5" fill="white"/>
    
    <!-- Ventanas -->
    <circle cx="60" cy="-10" r="8" fill="#1e40af"/>
    <circle cx="30" cy="-10" r="8" fill="#1e40af"/>
    <circle cx="0" cy="-10" r="8" fill="#1e40af"/>
    <circle cx="-30" cy="-10" r="8" fill="#1e40af"/>
  </g>
</svg>